<mxfile host="app.diagrams.net" modified="2021-11-02T17:55:34.462Z" agent="5.0 (Windows NT 10.0; Win64; x64) AppleWebKit/537.36 (KHTML, like Gecko) Chrome/95.0.4638.54 Safari/537.36" etag="eQt5L1-YM9gIarNzY1k3" version="15.6.6" type="github">
  <diagram id="YY28kZcZGRgFsAUc2xfE" name="Page-1">
    <mxGraphModel dx="1422" dy="794" grid="1" gridSize="10" guides="1" tooltips="1" connect="1" arrows="1" fold="1" page="1" pageScale="1" pageWidth="827" pageHeight="1169" math="0" shadow="0">
      <root>
        <mxCell id="0" />
        <mxCell id="1" parent="0" />
        <mxCell id="XGTvkd6xmJvj21gc97sk-10" value="" style="rounded=0;whiteSpace=wrap;html=1;labelBackgroundColor=default;fontColor=default;fillColor=default;strokeColor=default;" vertex="1" parent="1">
          <mxGeometry x="115" y="50" width="320" height="140" as="geometry" />
        </mxCell>
        <mxCell id="XGTvkd6xmJvj21gc97sk-11" value="" style="rounded=0;whiteSpace=wrap;html=1;labelBackgroundColor=default;fontColor=default;strokeColor=default;fillColor=default;" vertex="1" parent="1">
          <mxGeometry x="337.5" y="100" width="90" height="80" as="geometry" />
        </mxCell>
        <mxCell id="XGTvkd6xmJvj21gc97sk-13" value="" style="rounded=0;whiteSpace=wrap;html=1;labelBackgroundColor=default;fontColor=default;strokeColor=default;fillColor=default;" vertex="1" parent="1">
          <mxGeometry x="122.5" y="100" width="90" height="80" as="geometry" />
        </mxCell>
        <mxCell id="XGTvkd6xmJvj21gc97sk-3" value="" style="aspect=fixed;perimeter=ellipsePerimeter;html=1;align=center;shadow=0;dashed=0;spacingTop=3;image;image=img/lib/active_directory/database_server.svg;labelBackgroundColor=default;fontColor=default;fillColor=default;strokeColor=default;" vertex="1" parent="1">
          <mxGeometry x="362.5" y="115" width="40" height="48.78" as="geometry" />
        </mxCell>
        <mxCell id="XGTvkd6xmJvj21gc97sk-5" value="" style="aspect=fixed;perimeter=ellipsePerimeter;html=1;align=center;shadow=0;dashed=0;spacingTop=3;image;image=img/lib/active_directory/generic_server.svg;labelBackgroundColor=default;fontColor=default;fillColor=default;strokeColor=default;" vertex="1" parent="1">
          <mxGeometry x="153.5" y="112.5" width="28.000000000000004" height="50" as="geometry" />
        </mxCell>
        <mxCell id="XGTvkd6xmJvj21gc97sk-12" value="" style="rounded=0;whiteSpace=wrap;html=1;labelBackgroundColor=default;fontColor=default;strokeColor=default;fillColor=default;" vertex="1" parent="1">
          <mxGeometry x="232.5" y="100" width="90" height="80" as="geometry" />
        </mxCell>
        <mxCell id="XGTvkd6xmJvj21gc97sk-6" value="" style="aspect=fixed;perimeter=ellipsePerimeter;html=1;align=center;shadow=0;dashed=0;spacingTop=3;image;image=img/lib/active_directory/web_server.svg;labelBackgroundColor=default;fontColor=default;fillColor=default;strokeColor=default;" vertex="1" parent="1">
          <mxGeometry x="260.5" y="112.5" width="40" height="50" as="geometry" />
        </mxCell>
        <mxCell id="XGTvkd6xmJvj21gc97sk-14" value="Microsoft Azure" style="text;html=1;strokeColor=none;fillColor=none;align=center;verticalAlign=middle;whiteSpace=wrap;rounded=0;labelBackgroundColor=default;fontColor=default;" vertex="1" parent="1">
          <mxGeometry x="215" y="20" width="120" height="30" as="geometry" />
        </mxCell>
        <mxCell id="XGTvkd6xmJvj21gc97sk-15" value="NextBike Service" style="text;html=1;strokeColor=none;fillColor=none;align=center;verticalAlign=middle;whiteSpace=wrap;rounded=0;labelBackgroundColor=default;fontColor=default;" vertex="1" parent="1">
          <mxGeometry x="141" y="60" width="60" height="30" as="geometry" />
        </mxCell>
        <mxCell id="XGTvkd6xmJvj21gc97sk-18" value="Freeturilo Web API" style="text;html=1;strokeColor=none;fillColor=none;align=center;verticalAlign=middle;whiteSpace=wrap;rounded=0;labelBackgroundColor=default;fontColor=default;" vertex="1" parent="1">
          <mxGeometry x="251" y="60" width="60" height="30" as="geometry" />
        </mxCell>
        <mxCell id="XGTvkd6xmJvj21gc97sk-19" value="Baza danych" style="text;html=1;strokeColor=none;fillColor=none;align=center;verticalAlign=middle;whiteSpace=wrap;rounded=0;labelBackgroundColor=default;fontColor=default;" vertex="1" parent="1">
          <mxGeometry x="356" y="60" width="60" height="30" as="geometry" />
        </mxCell>
        <mxCell id="XGTvkd6xmJvj21gc97sk-20" value="" style="html=1;verticalLabelPosition=bottom;align=center;labelBackgroundColor=#ffffff;verticalAlign=top;strokeWidth=2;strokeColor=#0080F0;shadow=0;dashed=0;shape=mxgraph.ios7.icons.smartphone;fontColor=default;fillColor=default;" vertex="1" parent="1">
          <mxGeometry x="265" y="220" width="30" height="50" as="geometry" />
        </mxCell>
        <mxCell id="XGTvkd6xmJvj21gc97sk-21" value="Urządzenie mobilne z aplikacją Freeturilo" style="text;html=1;align=center;verticalAlign=middle;resizable=0;points=[];autosize=1;strokeColor=none;fillColor=default;fontColor=default;" vertex="1" parent="1">
          <mxGeometry x="172.5" y="280" width="230" height="20" as="geometry" />
        </mxCell>
        <mxCell id="XGTvkd6xmJvj21gc97sk-25" value="" style="endArrow=classic;html=1;rounded=0;labelBackgroundColor=default;fontColor=default;strokeColor=default;exitX=0.467;exitY=-0.02;exitDx=0;exitDy=0;exitPerimeter=0;entryX=0.5;entryY=1;entryDx=0;entryDy=0;" edge="1" parent="1" source="XGTvkd6xmJvj21gc97sk-20" target="XGTvkd6xmJvj21gc97sk-12">
          <mxGeometry width="50" height="50" relative="1" as="geometry">
            <mxPoint x="390" y="320" as="sourcePoint" />
            <mxPoint x="440" y="270" as="targetPoint" />
          </mxGeometry>
        </mxCell>
        <mxCell id="XGTvkd6xmJvj21gc97sk-26" value="" style="endArrow=classic;html=1;rounded=0;labelBackgroundColor=default;fontColor=default;strokeColor=default;exitX=1;exitY=0.5;exitDx=0;exitDy=0;entryX=0;entryY=0.5;entryDx=0;entryDy=0;" edge="1" parent="1" source="XGTvkd6xmJvj21gc97sk-12" target="XGTvkd6xmJvj21gc97sk-11">
          <mxGeometry width="50" height="50" relative="1" as="geometry">
            <mxPoint x="390" y="320" as="sourcePoint" />
            <mxPoint x="440" y="270" as="targetPoint" />
          </mxGeometry>
        </mxCell>
        <mxCell id="XGTvkd6xmJvj21gc97sk-27" value="" style="endArrow=classic;html=1;rounded=0;labelBackgroundColor=default;fontColor=default;strokeColor=default;exitX=1;exitY=0.5;exitDx=0;exitDy=0;entryX=0;entryY=0.5;entryDx=0;entryDy=0;" edge="1" parent="1" source="XGTvkd6xmJvj21gc97sk-13" target="XGTvkd6xmJvj21gc97sk-12">
          <mxGeometry width="50" height="50" relative="1" as="geometry">
            <mxPoint x="390" y="320" as="sourcePoint" />
            <mxPoint x="440" y="270" as="targetPoint" />
          </mxGeometry>
        </mxCell>
      </root>
    </mxGraphModel>
  </diagram>
</mxfile>
